<svg width="84" height="75" viewBox="0 0 84 75" fill="none" xmlns="http://www.w3.org/2000/svg">
<circle cx="20.6074" cy="9.29547" r="9.29547" fill="#EBF7F5"/>
<circle cx="80.0986" cy="47.7182" r="3.71819" fill="#EBF7F5"/>
<path d="M79.4438 11.0239C82.4971 18.5469 78.8737 27.1207 71.3507 30.174C70.5208 30.5108 69.6781 30.7663 68.8315 30.9444C64.1204 31.9352 58.8591 33.2826 56.3382 37.384C53.3951 42.1726 55.0036 48.3912 59.3496 51.9556C68.015 59.0627 75.0268 68.43 79.3829 79.6172C92.9059 114.347 75.7149 153.463 40.9856 166.986C6.25636 180.509 -32.8599 163.318 -46.3829 128.588C-59.9059 93.8592 -42.7149 54.743 -7.98562 41.22C7.18342 35.3134 23.1894 35.2663 37.5341 39.9809C42.7299 41.6885 48.6536 40.0705 51.5174 35.4111L52.5823 33.6785C54.694 30.2427 53.7172 25.8177 52.2006 22.0808C49.1473 14.5578 52.7707 5.98397 60.2937 2.93068C67.8167 -0.122601 76.3906 3.50083 79.4438 11.0239Z" fill="#EBF7F5"/>
</svg>
