<svg width="101" height="98" viewBox="0 0 101 98" fill="none" xmlns="http://www.w3.org/2000/svg">
<circle cx="41.9429" cy="36.8643" r="6.82918" fill="#FFE1DF"/>
<circle cx="87" cy="27.0352" r="13" fill="#FFE1DF"/>
<path d="M39.2916 48.0805C39.9355 48.2789 40.419 48.8143 40.5509 49.4751L41.3808 53.6307C42.0005 56.7339 44.2338 59.2353 47.1294 60.5117C64.5172 68.1766 78.3809 83.3984 83.6072 103.2C92.7213 137.731 72.1167 173.113 37.5851 182.227C3.05366 191.341 -32.3281 170.737 -41.4424 136.205C-50.5566 101.674 -29.9518 66.292 4.5797 57.1777C12.0452 55.2072 19.5504 54.6262 26.8214 55.2745C29.789 55.5391 32.7579 54.4355 34.6097 52.1014L37.3132 48.6938C37.7833 48.1012 38.5688 47.8578 39.2916 48.0805Z" fill="#FFE1DF"/>
<circle cx="29.5475" cy="4.58203" r="3.49096" transform="rotate(-22.0902 29.5475 4.58203)" fill="#FFE1DF"/>
</svg>
